<svg width="287" height="163" viewBox="0 0 287 163" fill="none" xmlns="http://www.w3.org/2000/svg">
<g filter="url(#filter0_f_616_252)">
<path d="M8.304 154.995L72.048 8.11511H73.584L137.328 154.995H105.072L94.128 127.347H47.28L35.76 154.995H8.304ZM57.072 103.923H84.912L71.28 69.5551L57.072 103.923ZM157.928 154.995V13.6831H200.168C214.376 13.6831 226.472 15.7951 236.456 20.0191C246.44 24.2431 254.44 29.8751 260.456 36.9151C266.6 43.9551 271.08 51.8271 273.896 60.5311C276.712 69.2351 278.12 78.0031 278.12 86.8351C278.12 97.3311 276.2 106.803 272.36 115.251C268.648 123.571 263.528 130.739 257 136.755C250.472 142.643 242.92 147.187 234.344 150.387C225.768 153.459 216.68 154.995 207.08 154.995H157.928ZM185.768 128.115H202.28C216.36 128.115 227.688 124.467 236.264 117.171C244.968 109.875 249.32 99.1231 249.32 84.9151C249.32 75.6991 247.784 68.2111 244.712 62.4511C241.768 56.5631 238.056 52.0191 233.576 48.8191C229.224 45.6191 224.744 43.4431 220.136 42.2911C215.528 41.0111 211.624 40.3711 208.424 40.3711H185.768V128.115Z" fill="#082F49" fill-opacity="0.35"/>
</g>
<defs>
<filter id="filter0_f_616_252" x="0.303955" y="0.115112" width="285.816" height="162.88" filterUnits="userSpaceOnUse" color-interpolation-filters="sRGB">
<feFlood flood-opacity="0" result="BackgroundImageFix"/>
<feBlend mode="normal" in="SourceGraphic" in2="BackgroundImageFix" result="shape"/>
<feGaussianBlur stdDeviation="4" result="effect1_foregroundBlur_616_252"/>
</filter>
</defs>
</svg>
