<svg width="341" height="273" viewBox="0 0 341 273" fill="none" xmlns="http://www.w3.org/2000/svg">
<g clip-path="url(#clip0_266_88)">
<path d="M141.868 149.077C143.287 133.751 147.204 118.762 153.465 104.709C155.21 100.798 157.13 96.9738 159.226 93.2353C159.332 93.0398 159.357 92.811 159.297 92.5971C159.237 92.3832 159.097 92.2009 158.906 92.0888C158.715 91.9767 158.488 91.9435 158.272 91.9962C158.057 92.0488 157.871 92.1833 157.753 92.3711C150.13 105.988 144.79 120.769 141.945 136.123C141.154 140.411 140.559 144.729 140.161 149.077C140.06 150.174 141.767 150.167 141.868 149.077Z" fill="#38BDF8"/>
<path d="M163.36 95.9813C169.33 95.9813 174.17 91.1261 174.17 85.1369C174.17 79.1477 169.33 74.2925 163.36 74.2925C157.391 74.2925 152.551 79.1477 152.551 85.1369C152.551 91.1261 157.391 95.9813 163.36 95.9813Z" fill="#38BDF8"/>
<path d="M142.975 149.365C143.895 139.422 146.437 129.698 150.498 120.582C151.63 118.044 152.876 115.563 154.236 113.138C154.304 113.011 154.321 112.863 154.282 112.724C154.243 112.585 154.152 112.467 154.028 112.394C153.904 112.322 153.757 112.3 153.617 112.334C153.477 112.368 153.357 112.455 153.28 112.577C148.335 121.411 144.87 131 143.025 140.961C142.512 143.743 142.126 146.544 141.867 149.365C141.802 150.077 142.909 150.072 142.975 149.365Z" fill="#38BDF8"/>
<path d="M156.918 114.92C160.79 114.92 163.93 111.77 163.93 107.884C163.93 103.999 160.79 100.849 156.918 100.849C153.045 100.849 149.905 103.999 149.905 107.884C149.905 111.77 153.045 114.92 156.918 114.92Z" fill="#0EA5E9"/>
<path d="M141.577 148.701C136.206 140.293 132.249 131.058 129.863 121.363C129.2 118.664 128.661 115.939 128.246 113.188C128.223 113.046 128.144 112.918 128.029 112.833C127.913 112.747 127.769 112.71 127.626 112.729C127.484 112.749 127.355 112.823 127.266 112.936C127.177 113.049 127.135 113.192 127.149 113.336C128.665 123.352 131.812 133.051 136.464 142.044C137.765 144.554 139.178 147.001 140.704 149.384C141.088 149.986 141.959 149.299 141.577 148.701Z" fill="#38BDF8"/>
<path d="M127.141 114.426C131.014 114.426 134.153 111.276 134.153 107.39C134.153 103.505 131.014 100.355 127.141 100.355C123.268 100.355 120.128 103.505 120.128 107.39C120.128 111.276 123.268 114.426 127.141 114.426Z" fill="#38BDF8"/>
<path d="M120.049 154.926V141.103C120.05 139.728 120.595 138.411 121.564 137.439C122.532 136.467 123.846 135.921 125.215 135.919H157.364C158.733 135.921 160.047 136.467 161.015 137.439C161.984 138.411 162.529 139.728 162.53 141.103V154.926C162.529 156.3 161.984 157.617 161.015 158.589C160.047 159.561 158.733 160.107 157.364 160.109H125.215C123.846 160.107 122.532 159.561 121.564 158.589C120.595 157.617 120.05 156.3 120.049 154.926Z" fill="#0C4A6E"/>
<path d="M156.215 66.3053H142.438C141.201 66.3039 140.015 65.8103 139.14 64.9323C138.265 64.0544 137.772 62.8638 137.771 61.6214V5.17894C137.772 3.93663 138.265 2.74598 139.14 1.86805C140.015 0.990155 141.201 0.49659 142.438 0.495117H156.215C157.452 0.49659 158.638 0.99015 159.513 1.86805C160.388 2.74606 160.881 3.93683 160.882 5.17922V61.6212C160.881 62.8635 160.388 64.0543 159.513 64.9323C158.638 65.8103 157.452 66.3039 156.215 66.3053Z" fill="#38BDF8" stroke="#082F49"/>
<path d="M160.808 10.9382H137.845V15.5458H160.808V10.9382Z" fill="#082F49"/>
<path d="M160.808 46.647H137.845V51.2546H160.808V46.647Z" fill="#082F49"/>
<path d="M190.659 66.3053H176.883C175.646 66.3039 174.46 65.8103 173.584 64.9323C172.709 64.0544 172.217 62.8638 172.215 61.6214V5.17894C172.217 3.93663 172.709 2.74598 173.584 1.86805C174.46 0.990155 175.646 0.49659 176.882 0.495117H190.66C191.896 0.49659 193.082 0.99015 193.957 1.86805C194.833 2.74606 195.325 3.93683 195.327 5.17922V61.6212C195.325 62.8635 194.833 64.0543 193.957 64.9323C193.082 65.8103 191.896 66.3039 190.659 66.3053Z" fill="#38BDF8" stroke="#082F49"/>
<path d="M195.252 10.9382H172.289V15.5458H195.252V10.9382Z" fill="#0C4A6E"/>
<path d="M195.252 46.647H172.289V51.2546H195.252V46.647Z" fill="#0C4A6E"/>
<path d="M225.104 66.3053H211.327C210.09 66.3039 208.904 65.8103 208.029 64.9323C207.154 64.0544 206.661 62.8638 206.66 61.6214V5.17894C206.661 3.93663 207.154 2.74598 208.029 1.86805C208.904 0.990155 210.09 0.49659 211.327 0.495117H225.104C226.341 0.49659 227.527 0.99015 228.402 1.86805C229.277 2.74606 229.77 3.93683 229.771 5.17922V61.6212C229.77 62.8635 229.277 64.0543 228.402 64.9323C227.527 65.8103 226.341 66.3039 225.104 66.3053Z" fill="#38BDF8" stroke="#082F49"/>
<path d="M229.697 10.9382H206.734V15.5458H229.697V10.9382Z" fill="#F0F9FF"/>
<path d="M229.697 46.647H206.734V51.2546H229.697V46.647Z" fill="#082F49"/>
<path d="M243.981 159.615H230.204C228.967 159.613 227.781 159.12 226.906 158.242C226.031 157.364 225.539 156.173 225.537 154.931V98.4884C225.539 97.2461 226.031 96.0554 226.906 95.1774C227.781 94.2996 228.967 93.806 230.204 93.8045H243.981C245.218 93.806 246.404 94.2995 247.279 95.1774C248.154 96.0555 248.647 97.2463 248.648 98.4886V154.931C248.647 156.173 248.154 157.364 247.279 158.242C246.404 159.12 245.218 159.613 243.981 159.615Z" fill="#38BDF8" stroke="#082F49"/>
<path d="M248.067 104.242H225.104V108.85H248.067V104.242Z" fill="#082F49"/>
<path d="M248.067 139.951H225.104V144.558H248.067V139.951Z" fill="#082F49"/>
<path d="M277.919 159.609H264.142C262.905 159.608 261.719 159.114 260.844 158.236C259.969 157.358 259.476 156.168 259.475 154.925V98.4827C259.476 97.2404 259.969 96.0497 260.844 95.1718C261.719 94.2939 262.905 93.8004 264.142 93.7989H277.919C279.156 93.8004 280.342 94.2939 281.217 95.1718C282.092 96.0498 282.584 97.2406 282.586 98.483V154.925C282.584 156.167 282.092 157.358 281.217 158.236C280.342 159.114 279.155 159.608 277.919 159.609Z" fill="#38BDF8" stroke="#082F49"/>
<path d="M282.512 104.242H259.549V108.85H282.512V104.242Z" fill="#082F49"/>
<path d="M282.512 139.951H259.549V144.558H282.512V139.951Z" fill="#0C4A6E"/>
<path d="M312.363 159.609H298.586C297.349 159.608 296.163 159.114 295.288 158.236C294.413 157.358 293.921 156.168 293.919 154.925V98.4827C293.921 97.2404 294.413 96.0497 295.288 95.1718C296.163 94.2939 297.349 93.8004 298.586 93.7989H312.363C313.6 93.8004 314.786 94.2939 315.661 95.1718C316.536 96.0498 317.029 97.2406 317.03 98.483V154.925C317.029 156.167 316.536 157.358 315.661 158.236C314.786 159.114 313.6 159.608 312.363 159.609Z" fill="#38BDF8" stroke="#082F49"/>
<path d="M316.956 104.242H293.993V108.85H316.956V104.242Z" fill="#082F49"/>
<path d="M316.956 139.951H293.993V144.558H316.956V139.951Z" fill="#082F49"/>
<path d="M152.77 252.913H138.994C137.757 252.911 136.571 252.418 135.696 251.54C134.821 250.662 134.328 249.471 134.327 248.229V191.787C134.328 190.544 134.821 189.354 135.696 188.476C136.571 187.598 137.757 187.104 138.993 187.103H152.771C154.007 187.104 155.193 187.598 156.069 188.476C156.944 189.354 157.436 190.544 157.438 191.787V248.229C157.436 249.471 156.944 250.662 156.069 251.54C155.193 252.418 154.007 252.911 152.77 252.913Z" fill="#38BDF8" stroke="#082F49"/>
<path d="M157.364 197.546H134.401V202.153H157.364V197.546Z" fill="#0C4A6E"/>
<path d="M157.364 233.255H134.401V237.862H157.364V233.255Z" fill="#082F49"/>
<path d="M187.215 252.913H173.438C172.201 252.911 171.015 252.418 170.14 251.54C169.265 250.662 168.772 249.471 168.771 248.229V191.787C168.772 190.544 169.265 189.354 170.14 188.476C171.015 187.598 172.201 187.104 173.438 187.103H187.215C188.452 187.104 189.638 187.598 190.513 188.476C191.388 189.354 191.881 190.544 191.882 191.787V248.229C191.881 249.471 191.388 250.662 190.513 251.54C189.638 252.418 188.452 252.911 187.215 252.913Z" fill="#38BDF8" stroke="#082F49"/>
<path d="M191.808 197.546H168.845V202.153H191.808V197.546Z" fill="#082F49"/>
<path d="M191.808 233.255H168.845V237.862H191.808V233.255Z" fill="#082F49"/>
<path d="M221.659 252.913H207.883C206.646 252.911 205.46 252.418 204.584 251.54C203.709 250.662 203.217 249.471 203.215 248.229V191.787C203.217 190.544 203.709 189.354 204.584 188.476C205.46 187.598 206.646 187.104 207.882 187.103H221.66C222.896 187.104 224.082 187.598 224.957 188.476C225.833 189.354 226.325 190.544 226.327 191.787V248.229C226.325 249.471 225.833 250.662 224.957 251.54C224.082 252.418 222.896 252.911 221.659 252.913Z" fill="#38BDF8" stroke="#082F49"/>
<path d="M226.252 197.546H203.289V202.153H226.252V197.546Z" fill="#082F49"/>
<path d="M226.252 233.255H203.289V237.862H226.252V233.255Z" fill="#082F49"/>
<path d="M259.548 66.3053H245.772C244.535 66.3039 243.348 65.8103 242.473 64.9323C241.598 64.0544 241.106 62.8638 241.104 61.6214V5.17894C241.106 3.93663 241.598 2.74598 242.473 1.86805C243.348 0.990155 244.534 0.49659 245.771 0.495117H259.548C260.785 0.49659 261.971 0.99015 262.846 1.86805C263.721 2.74606 264.214 3.93683 264.215 5.17922V61.6212C264.214 62.8635 263.721 64.0543 262.846 64.9323C261.971 65.8103 260.785 66.3039 259.548 66.3053Z" fill="#38BDF8" stroke="#082F49"/>
<path d="M264.141 10.9382H241.178V15.5458H264.141V10.9382Z" fill="#082F49"/>
<path d="M264.141 46.647H241.178V51.2546H264.141V46.647Z" fill="#082F49"/>
<path d="M293.993 66.3053H280.216C278.979 66.3039 277.793 65.8103 276.918 64.9323C276.043 64.0544 275.55 62.8638 275.549 61.6214V5.17894C275.55 3.93663 276.043 2.74598 276.918 1.86805C277.793 0.990155 278.979 0.49659 280.216 0.495117H293.993C295.23 0.49659 296.416 0.99015 297.291 1.86805C298.166 2.74606 298.658 3.93683 298.66 5.17922V61.6212C298.658 62.8635 298.166 64.0543 297.291 64.9323C296.416 65.8103 295.23 66.3039 293.993 66.3053Z" fill="#38BDF8" stroke="#082F49"/>
<path d="M298.586 10.9382H275.623V15.5458H298.586V10.9382Z" fill="#082F49"/>
<path d="M298.586 46.647H275.623V51.2546H298.586V46.647Z" fill="#082F49"/>
<path d="M328.437 66.3053H314.66C313.424 66.3039 312.237 65.8103 311.362 64.9323C310.487 64.0544 309.995 62.8638 309.993 61.6214V5.17894C309.995 3.93663 310.487 2.74598 311.362 1.86805C312.237 0.990155 313.423 0.49659 314.66 0.495117H328.437C329.674 0.49659 330.86 0.99015 331.735 1.86805C332.61 2.74606 333.103 3.93683 333.104 5.17922V61.6212C333.103 62.8635 332.61 64.0543 331.735 64.9323C330.86 65.8103 329.674 66.3039 328.437 66.3053Z" fill="#38BDF8" stroke="#082F49"/>
<path d="M333.03 10.9382H310.067V15.5458H333.03V10.9382Z" fill="#082F49"/>
<path d="M333.03 46.647H310.067V51.2546H333.03V46.647Z" fill="#0C4A6E"/>
<path d="M414.482 68.5331H87.2593C86.9548 68.5331 86.6627 68.4117 86.4474 68.1957C86.2321 67.9797 86.1111 67.6867 86.1111 67.3812C86.1111 67.0757 86.2321 66.7827 86.4474 66.5667C86.6627 66.3506 86.9548 66.2293 87.2593 66.2293H414.482C414.786 66.2293 415.078 66.3506 415.293 66.5667C415.509 66.7827 415.63 67.0757 415.63 67.3812C415.63 67.6867 415.509 67.9797 415.293 68.1957C415.078 68.4117 414.786 68.5331 414.482 68.5331Z" fill="#082F49"/>
<path d="M414.482 161.837H87.2593C86.9548 161.837 86.6627 161.716 86.4474 161.499C86.2321 161.283 86.1111 160.99 86.1111 160.685C86.1111 160.379 86.2321 160.086 86.4474 159.87C86.6627 159.654 86.9548 159.533 87.2593 159.533H414.482C414.786 159.533 415.078 159.654 415.293 159.87C415.509 160.086 415.63 160.379 415.63 160.685C415.63 160.99 415.509 161.283 415.293 161.499C415.078 161.716 414.786 161.837 414.482 161.837Z" fill="#082F49"/>
<path d="M414.482 255.141H87.2593C86.9548 255.141 86.6627 255.019 86.4474 254.803C86.2321 254.587 86.1111 254.294 86.1111 253.989C86.1111 253.683 86.2321 253.39 86.4474 253.174C86.6627 252.958 86.9548 252.837 87.2593 252.837H414.482C414.786 252.837 415.078 252.958 415.293 253.174C415.509 253.39 415.63 253.683 415.63 253.989C415.63 254.294 415.509 254.587 415.293 254.803C415.078 255.019 414.786 255.141 414.482 255.141Z" fill="#082F49"/>
<path d="M301.313 242.381C302.731 227.054 306.649 212.065 312.909 198.013C314.654 194.102 316.575 190.277 318.671 186.539C318.776 186.343 318.801 186.115 318.742 185.901C318.682 185.687 318.542 185.505 318.35 185.392C318.159 185.28 317.932 185.247 317.717 185.3C317.502 185.352 317.315 185.487 317.197 185.675C309.574 199.291 304.234 214.072 301.39 229.427C300.599 233.714 300.004 238.032 299.606 242.381C299.505 243.477 301.212 243.471 301.313 242.381Z" fill="#38BDF8"/>
<path d="M302.419 242.669C303.339 232.726 305.881 223.002 309.943 213.885C311.075 211.348 312.32 208.867 313.68 206.442C313.749 206.315 313.765 206.166 313.726 206.028C313.687 205.889 313.596 205.771 313.472 205.698C313.348 205.625 313.201 205.604 313.061 205.638C312.922 205.672 312.801 205.759 312.724 205.881C307.779 214.715 304.314 224.304 302.469 234.265C301.956 237.047 301.57 239.848 301.312 242.669C301.246 243.38 302.354 243.376 302.419 242.669Z" fill="#38BDF8"/>
<path d="M317.362 197.223C321.235 197.223 324.374 194.074 324.374 190.188C324.374 186.303 321.235 183.153 317.362 183.153C313.489 183.153 310.35 186.303 310.35 190.188C310.35 194.074 313.489 197.223 317.362 197.223Z" fill="#38BDF8"/>
<path d="M301.021 242.005C295.651 233.597 291.694 224.362 289.307 214.667C288.645 211.968 288.106 209.243 287.691 206.491C287.667 206.349 287.589 206.222 287.473 206.137C287.358 206.051 287.214 206.014 287.071 206.033C286.929 206.052 286.799 206.126 286.71 206.239C286.621 206.353 286.579 206.496 286.594 206.639C288.11 216.656 291.257 226.355 295.909 235.348C297.209 237.858 298.622 240.304 300.148 242.688C300.533 243.29 301.403 242.603 301.021 242.005Z" fill="#38BDF8"/>
<path d="M286.585 207.729C290.458 207.729 293.597 204.579 293.597 200.694C293.597 196.808 290.458 193.659 286.585 193.659C282.712 193.659 279.573 196.808 279.573 200.694C279.573 204.579 282.712 207.729 286.585 207.729Z" fill="#38BDF8"/>
<path d="M279.493 248.229V234.407C279.495 233.032 280.039 231.715 281.008 230.743C281.977 229.771 283.29 229.225 284.66 229.223H316.808C318.178 229.225 319.491 229.771 320.46 230.743C321.428 231.715 321.973 233.032 321.975 234.407V248.229C321.973 249.604 321.428 250.921 320.46 251.893C319.491 252.865 318.178 253.411 316.808 253.413H284.66C283.29 253.411 281.977 252.865 281.008 251.893C280.039 250.921 279.495 249.604 279.493 248.229Z" fill="#0C4A6E"/>
<path d="M312 212C314.761 212 317 209.761 317 207C317 204.239 314.761 202 312 202C309.239 202 307 204.239 307 207C307 209.761 309.239 212 312 212Z" fill="#0EA5E9"/>
</g>
<defs>
<clipPath id="clip0_266_88">
<rect width="341" height="273" fill="white" transform="translate(0 -0.00488281)"/>
</clipPath>
</defs>
</svg>
