<svg width="357" height="288" viewBox="0 0 357 288" fill="none" xmlns="http://www.w3.org/2000/svg">
<g clip-path="url(#clip0_266_88)" filter="url(#filter0_d_266_88)">
<path d="M141.868 159.077C143.287 143.751 147.204 128.762 153.465 114.709C155.21 110.798 157.13 106.974 159.226 103.235C159.332 103.04 159.357 102.811 159.297 102.597C159.237 102.383 159.097 102.201 158.906 102.089C158.715 101.977 158.488 101.944 158.272 101.996C158.057 102.049 157.871 102.183 157.753 102.371C150.13 115.988 144.79 130.769 141.945 146.123C141.154 150.411 140.559 154.729 140.161 159.077C140.06 160.174 141.767 160.167 141.868 159.077Z" fill="#38BDF8"/>
<path d="M163.36 105.981C169.33 105.981 174.17 101.126 174.17 95.1369C174.17 89.1477 169.33 84.2925 163.36 84.2925C157.391 84.2925 152.551 89.1477 152.551 95.1369C152.551 101.126 157.391 105.981 163.36 105.981Z" fill="#38BDF8"/>
<path d="M142.975 159.365C143.895 149.422 146.437 139.698 150.498 130.582C151.63 128.044 152.876 125.563 154.236 123.138C154.304 123.011 154.321 122.863 154.282 122.724C154.243 122.585 154.152 122.467 154.028 122.394C153.904 122.322 153.757 122.3 153.617 122.334C153.477 122.368 153.357 122.455 153.28 122.577C148.335 131.411 144.87 141 143.025 150.961C142.512 153.743 142.126 156.544 141.867 159.365C141.802 160.077 142.909 160.072 142.975 159.365Z" fill="#38BDF8"/>
<path d="M156.918 124.92C160.79 124.92 163.93 121.77 163.93 117.884C163.93 113.999 160.79 110.849 156.918 110.849C153.045 110.849 149.905 113.999 149.905 117.884C149.905 121.77 153.045 124.92 156.918 124.92Z" fill="#0EA5E9"/>
<path d="M141.577 158.701C136.206 150.293 132.249 141.058 129.863 131.363C129.2 128.664 128.661 125.939 128.246 123.188C128.223 123.046 128.144 122.918 128.029 122.833C127.913 122.747 127.769 122.71 127.626 122.729C127.484 122.749 127.355 122.823 127.266 122.936C127.177 123.049 127.135 123.192 127.149 123.336C128.665 133.352 131.812 143.051 136.464 152.044C137.765 154.554 139.178 157.001 140.704 159.384C141.088 159.986 141.959 159.299 141.577 158.701Z" fill="#38BDF8"/>
<path d="M127.141 124.426C131.014 124.426 134.153 121.276 134.153 117.39C134.153 113.505 131.014 110.355 127.141 110.355C123.268 110.355 120.128 113.505 120.128 117.39C120.128 121.276 123.268 124.426 127.141 124.426Z" fill="#38BDF8"/>
<path d="M120.049 164.926V151.103C120.05 149.728 120.595 148.411 121.564 147.439C122.532 146.467 123.846 145.921 125.215 145.919H157.364C158.733 145.921 160.047 146.467 161.015 147.439C161.984 148.411 162.529 149.728 162.53 151.103V164.926C162.529 166.3 161.984 167.617 161.015 168.589C160.047 169.561 158.733 170.107 157.364 170.109H125.215C123.846 170.107 122.532 169.561 121.564 168.589C120.595 167.617 120.05 166.3 120.049 164.926Z" fill="#0C4A6E"/>
<path d="M156.215 76.3053H142.438C141.201 76.3039 140.015 75.8103 139.14 74.9323C138.265 74.0544 137.772 72.8638 137.771 71.6214V15.1789C137.772 13.9366 138.265 12.746 139.14 11.868C140.015 10.9902 141.201 10.4966 142.438 10.4951H156.215C157.452 10.4966 158.638 10.9902 159.513 11.868C160.388 12.7461 160.881 13.9368 160.882 15.1792V71.6212C160.881 72.8635 160.388 74.0543 159.513 74.9323C158.638 75.8103 157.452 76.3039 156.215 76.3053Z" fill="#38BDF8" stroke="#082F49"/>
<path d="M160.808 20.9382H137.845V25.5458H160.808V20.9382Z" fill="#082F49"/>
<path d="M160.808 56.647H137.845V61.2546H160.808V56.647Z" fill="#082F49"/>
<path d="M190.659 76.3053H176.883C175.646 76.3039 174.46 75.8103 173.584 74.9323C172.709 74.0544 172.217 72.8638 172.215 71.6214V15.1789C172.217 13.9366 172.709 12.746 173.584 11.868C174.46 10.9902 175.646 10.4966 176.882 10.4951H190.66C191.896 10.4966 193.082 10.9902 193.957 11.868C194.833 12.7461 195.325 13.9368 195.327 15.1792V71.6212C195.325 72.8635 194.833 74.0543 193.957 74.9323C193.082 75.8103 191.896 76.3039 190.659 76.3053Z" fill="#38BDF8" stroke="#082F49"/>
<path d="M195.252 20.9382H172.289V25.5458H195.252V20.9382Z" fill="#0C4A6E"/>
<path d="M195.252 56.647H172.289V61.2546H195.252V56.647Z" fill="#0C4A6E"/>
<path d="M225.104 76.3053H211.327C210.09 76.3039 208.904 75.8103 208.029 74.9323C207.154 74.0544 206.661 72.8638 206.66 71.6214V15.1789C206.661 13.9366 207.154 12.746 208.029 11.868C208.904 10.9902 210.09 10.4966 211.327 10.4951H225.104C226.341 10.4966 227.527 10.9902 228.402 11.868C229.277 12.7461 229.77 13.9368 229.771 15.1792V71.6212C229.77 72.8635 229.277 74.0543 228.402 74.9323C227.527 75.8103 226.341 76.3039 225.104 76.3053Z" fill="#38BDF8" stroke="#082F49"/>
<path d="M229.697 20.9382H206.734V25.5458H229.697V20.9382Z" fill="#F0F9FF"/>
<path d="M229.697 56.647H206.734V61.2546H229.697V56.647Z" fill="#082F49"/>
<path d="M243.981 169.615H230.204C228.967 169.613 227.781 169.12 226.906 168.242C226.031 167.364 225.539 166.173 225.537 164.931V108.488C225.539 107.246 226.031 106.055 226.906 105.177C227.781 104.3 228.967 103.806 230.204 103.805H243.981C245.218 103.806 246.404 104.3 247.279 105.177C248.154 106.055 248.647 107.246 248.648 108.489V164.931C248.647 166.173 248.154 167.364 247.279 168.242C246.404 169.12 245.218 169.613 243.981 169.615Z" fill="#38BDF8" stroke="#082F49"/>
<path d="M248.067 114.242H225.104V118.85H248.067V114.242Z" fill="#082F49"/>
<path d="M248.067 149.951H225.104V154.558H248.067V149.951Z" fill="#082F49"/>
<path d="M277.919 169.609H264.142C262.905 169.608 261.719 169.114 260.844 168.236C259.969 167.358 259.476 166.168 259.475 164.925V108.483C259.476 107.24 259.969 106.05 260.844 105.172C261.719 104.294 262.905 103.8 264.142 103.799H277.919C279.156 103.8 280.342 104.294 281.217 105.172C282.092 106.05 282.584 107.241 282.586 108.483V164.925C282.584 166.167 282.092 167.358 281.217 168.236C280.342 169.114 279.155 169.608 277.919 169.609Z" fill="#38BDF8" stroke="#082F49"/>
<path d="M282.512 114.242H259.549V118.85H282.512V114.242Z" fill="#082F49"/>
<path d="M282.512 149.951H259.549V154.558H282.512V149.951Z" fill="#0C4A6E"/>
<path d="M312.363 169.609H298.586C297.349 169.608 296.163 169.114 295.288 168.236C294.413 167.358 293.921 166.168 293.919 164.925V108.483C293.921 107.24 294.413 106.05 295.288 105.172C296.163 104.294 297.349 103.8 298.586 103.799H312.363C313.6 103.8 314.786 104.294 315.661 105.172C316.536 106.05 317.029 107.241 317.03 108.483V164.925C317.029 166.167 316.536 167.358 315.661 168.236C314.786 169.114 313.6 169.608 312.363 169.609Z" fill="#38BDF8" stroke="#082F49"/>
<path d="M316.956 114.242H293.993V118.85H316.956V114.242Z" fill="#082F49"/>
<path d="M316.956 149.951H293.993V154.558H316.956V149.951Z" fill="#082F49"/>
<path d="M152.77 262.913H138.994C137.757 262.911 136.571 262.418 135.696 261.54C134.821 260.662 134.328 259.471 134.327 258.229V201.787C134.328 200.544 134.821 199.354 135.696 198.476C136.571 197.598 137.757 197.104 138.993 197.103H152.771C154.007 197.104 155.193 197.598 156.069 198.476C156.944 199.354 157.436 200.544 157.438 201.787V258.229C157.436 259.471 156.944 260.662 156.069 261.54C155.193 262.418 154.007 262.911 152.77 262.913Z" fill="#38BDF8" stroke="#082F49"/>
<path d="M157.364 207.546H134.401V212.153H157.364V207.546Z" fill="#0C4A6E"/>
<path d="M157.364 243.255H134.401V247.862H157.364V243.255Z" fill="#082F49"/>
<path d="M187.215 262.913H173.438C172.201 262.911 171.015 262.418 170.14 261.54C169.265 260.662 168.772 259.471 168.771 258.229V201.787C168.772 200.544 169.265 199.354 170.14 198.476C171.015 197.598 172.201 197.104 173.438 197.103H187.215C188.452 197.104 189.638 197.598 190.513 198.476C191.388 199.354 191.881 200.544 191.882 201.787V258.229C191.881 259.471 191.388 260.662 190.513 261.54C189.638 262.418 188.452 262.911 187.215 262.913Z" fill="#38BDF8" stroke="#082F49"/>
<path d="M191.808 207.546H168.845V212.153H191.808V207.546Z" fill="#082F49"/>
<path d="M191.808 243.255H168.845V247.862H191.808V243.255Z" fill="#082F49"/>
<path d="M221.659 262.913H207.883C206.646 262.911 205.46 262.418 204.584 261.54C203.709 260.662 203.217 259.471 203.215 258.229V201.787C203.217 200.544 203.709 199.354 204.584 198.476C205.46 197.598 206.646 197.104 207.882 197.103H221.66C222.896 197.104 224.082 197.598 224.957 198.476C225.833 199.354 226.325 200.544 226.327 201.787V258.229C226.325 259.471 225.833 260.662 224.957 261.54C224.082 262.418 222.896 262.911 221.659 262.913Z" fill="#38BDF8" stroke="#082F49"/>
<path d="M226.252 207.546H203.289V212.153H226.252V207.546Z" fill="#082F49"/>
<path d="M226.252 243.255H203.289V247.862H226.252V243.255Z" fill="#082F49"/>
<path d="M259.548 76.3053H245.772C244.535 76.3039 243.348 75.8103 242.473 74.9323C241.598 74.0544 241.106 72.8638 241.104 71.6214V15.1789C241.106 13.9366 241.598 12.746 242.473 11.868C243.348 10.9902 244.534 10.4966 245.771 10.4951H259.548C260.785 10.4966 261.971 10.9902 262.846 11.868C263.721 12.7461 264.214 13.9368 264.215 15.1792V71.6212C264.214 72.8635 263.721 74.0543 262.846 74.9323C261.971 75.8103 260.785 76.3039 259.548 76.3053Z" fill="#38BDF8" stroke="#082F49"/>
<path d="M264.141 20.9382H241.178V25.5458H264.141V20.9382Z" fill="#082F49"/>
<path d="M264.141 56.647H241.178V61.2546H264.141V56.647Z" fill="#082F49"/>
<path d="M293.993 76.3053H280.216C278.979 76.3039 277.793 75.8103 276.918 74.9323C276.043 74.0544 275.55 72.8638 275.549 71.6214V15.1789C275.55 13.9366 276.043 12.746 276.918 11.868C277.793 10.9902 278.979 10.4966 280.216 10.4951H293.993C295.23 10.4966 296.416 10.9902 297.291 11.868C298.166 12.7461 298.658 13.9368 298.66 15.1792V71.6212C298.658 72.8635 298.166 74.0543 297.291 74.9323C296.416 75.8103 295.23 76.3039 293.993 76.3053Z" fill="#38BDF8" stroke="#082F49"/>
<path d="M298.586 20.9382H275.623V25.5458H298.586V20.9382Z" fill="#082F49"/>
<path d="M298.586 56.647H275.623V61.2546H298.586V56.647Z" fill="#082F49"/>
<path d="M328.437 76.3053H314.66C313.424 76.3039 312.237 75.8103 311.362 74.9323C310.487 74.0544 309.995 72.8638 309.993 71.6214V15.1789C309.995 13.9366 310.487 12.746 311.362 11.868C312.237 10.9902 313.423 10.4966 314.66 10.4951H328.437C329.674 10.4966 330.86 10.9902 331.735 11.868C332.61 12.7461 333.103 13.9368 333.104 15.1792V71.6212C333.103 72.8635 332.61 74.0543 331.735 74.9323C330.86 75.8103 329.674 76.3039 328.437 76.3053Z" fill="#38BDF8" stroke="#082F49"/>
<path d="M333.03 20.9382H310.067V25.5458H333.03V20.9382Z" fill="#082F49"/>
<path d="M333.03 56.647H310.067V61.2546H333.03V56.647Z" fill="#0C4A6E"/>
<path d="M414.482 78.5331H87.2593C86.9548 78.5331 86.6627 78.4117 86.4474 78.1957C86.2321 77.9797 86.1111 77.6867 86.1111 77.3812C86.1111 77.0757 86.2321 76.7827 86.4474 76.5667C86.6627 76.3506 86.9548 76.2293 87.2593 76.2293H414.482C414.786 76.2293 415.078 76.3506 415.293 76.5667C415.509 76.7827 415.63 77.0757 415.63 77.3812C415.63 77.6867 415.509 77.9797 415.293 78.1957C415.078 78.4117 414.786 78.5331 414.482 78.5331Z" fill="#082F49"/>
<path d="M414.482 171.837H87.2593C86.9548 171.837 86.6627 171.716 86.4474 171.499C86.2321 171.283 86.1111 170.99 86.1111 170.685C86.1111 170.379 86.2321 170.086 86.4474 169.87C86.6627 169.654 86.9548 169.533 87.2593 169.533H414.482C414.786 169.533 415.078 169.654 415.293 169.87C415.509 170.086 415.63 170.379 415.63 170.685C415.63 170.99 415.509 171.283 415.293 171.499C415.078 171.716 414.786 171.837 414.482 171.837Z" fill="#082F49"/>
<path d="M414.482 265.141H87.2593C86.9548 265.141 86.6627 265.019 86.4474 264.803C86.2321 264.587 86.1111 264.294 86.1111 263.989C86.1111 263.683 86.2321 263.39 86.4474 263.174C86.6627 262.958 86.9548 262.837 87.2593 262.837H414.482C414.786 262.837 415.078 262.958 415.293 263.174C415.509 263.39 415.63 263.683 415.63 263.989C415.63 264.294 415.509 264.587 415.293 264.803C415.078 265.019 414.786 265.141 414.482 265.141Z" fill="#082F49"/>
<path d="M301.313 252.381C302.731 237.054 306.649 222.065 312.909 208.013C314.654 204.102 316.575 200.277 318.671 196.539C318.776 196.343 318.801 196.115 318.742 195.901C318.682 195.687 318.542 195.505 318.35 195.392C318.159 195.28 317.932 195.247 317.717 195.3C317.502 195.352 317.315 195.487 317.197 195.675C309.574 209.291 304.234 224.072 301.39 239.427C300.599 243.714 300.004 248.032 299.606 252.381C299.505 253.477 301.212 253.471 301.313 252.381Z" fill="#38BDF8"/>
<path d="M302.419 252.669C303.339 242.726 305.881 233.002 309.943 223.885C311.075 221.348 312.32 218.867 313.68 216.442C313.749 216.315 313.765 216.166 313.726 216.028C313.687 215.889 313.596 215.771 313.472 215.698C313.348 215.625 313.201 215.604 313.061 215.638C312.922 215.672 312.801 215.759 312.724 215.881C307.779 224.715 304.314 234.304 302.469 244.265C301.956 247.047 301.57 249.848 301.312 252.669C301.246 253.38 302.354 253.376 302.419 252.669Z" fill="#38BDF8"/>
<path d="M317.362 207.223C321.235 207.223 324.374 204.074 324.374 200.188C324.374 196.303 321.235 193.153 317.362 193.153C313.489 193.153 310.35 196.303 310.35 200.188C310.35 204.074 313.489 207.223 317.362 207.223Z" fill="#38BDF8"/>
<path d="M301.021 252.005C295.651 243.597 291.694 234.362 289.307 224.667C288.645 221.968 288.106 219.243 287.691 216.491C287.667 216.349 287.589 216.222 287.473 216.137C287.358 216.051 287.214 216.014 287.071 216.033C286.929 216.052 286.799 216.126 286.71 216.239C286.621 216.353 286.579 216.496 286.594 216.639C288.11 226.656 291.257 236.355 295.909 245.348C297.209 247.858 298.622 250.304 300.148 252.688C300.533 253.29 301.403 252.603 301.021 252.005Z" fill="#38BDF8"/>
<path d="M286.585 217.729C290.458 217.729 293.597 214.579 293.597 210.694C293.597 206.808 290.458 203.659 286.585 203.659C282.712 203.659 279.573 206.808 279.573 210.694C279.573 214.579 282.712 217.729 286.585 217.729Z" fill="#38BDF8"/>
<path d="M279.493 258.229V244.407C279.495 243.032 280.039 241.715 281.008 240.743C281.977 239.771 283.29 239.225 284.66 239.223H316.808C318.178 239.225 319.491 239.771 320.46 240.743C321.428 241.715 321.973 243.032 321.975 244.407V258.229C321.973 259.604 321.428 260.921 320.46 261.893C319.491 262.865 318.178 263.411 316.808 263.413H284.66C283.29 263.411 281.977 262.865 281.008 261.893C280.039 260.921 279.495 259.604 279.493 258.229Z" fill="#0C4A6E"/>
<path d="M312 222C314.761 222 317 219.761 317 217C317 214.239 314.761 212 312 212C309.239 212 307 214.239 307 217C307 219.761 309.239 222 312 222Z" fill="#0EA5E9"/>
</g>
<defs>
<filter id="filter0_d_266_88" x="-16" y="-0.00488281" width="373" height="305" filterUnits="userSpaceOnUse" color-interpolation-filters="sRGB">
<feFlood flood-opacity="0" result="BackgroundImageFix"/>
<feColorMatrix in="SourceAlpha" type="matrix" values="0 0 0 0 0 0 0 0 0 0 0 0 0 0 0 0 0 0 127 0" result="hardAlpha"/>
<feOffset dy="6"/>
<feGaussianBlur stdDeviation="8"/>
<feColorMatrix type="matrix" values="0 0 0 0 0.0313726 0 0 0 0 0.184314 0 0 0 0 0.286275 0 0 0 0.25 0"/>
<feBlend mode="normal" in2="BackgroundImageFix" result="effect1_dropShadow_266_88"/>
<feBlend mode="normal" in="SourceGraphic" in2="effect1_dropShadow_266_88" result="shape"/>
</filter>
<clipPath id="clip0_266_88">
<rect width="341" height="273" fill="white" transform="translate(0 9.99512)"/>
</clipPath>
</defs>
</svg>
