<svg width="445" height="282" viewBox="0 0 445 282" fill="none" xmlns="http://www.w3.org/2000/svg">
<g clip-path="url(#clip0_440_603)">
<path d="M372.597 22.0775H0.414429C0.940107 19.0925 1.96673 16.2686 3.40156 13.7109C7.98436 5.5364 16.7232 0 26.7361 0H346.275C356.282 0 365.027 5.5364 369.604 13.7109C371.039 16.2686 372.071 19.0925 372.597 22.0775Z" fill="#BAE6FD"/>
<path d="M445 280.969C445 281.378 444.672 281.706 444.264 281.706H291.325C290.917 281.706 290.589 281.378 290.589 280.969C290.589 280.771 290.663 280.597 290.787 280.467H346.275C347.457 280.467 348.613 280.387 349.751 280.232H444.264C444.672 280.232 445 280.56 445 280.969Z" fill="#0C4A6E"/>
<path d="M273.494 130.756H99.5128C97.8959 130.756 96.5806 129.089 96.5806 127.04C96.5806 124.991 97.8959 123.324 99.5128 123.324H273.494C275.111 123.324 276.426 124.991 276.426 127.04C276.426 129.089 275.111 130.756 273.494 130.756Z" fill="#082F49"/>
<path d="M372.597 22.0775C372.071 19.0925 371.038 16.2686 369.604 13.7109C365.027 5.5364 356.282 0 346.275 0H26.736C16.7232 0 7.98433 5.5364 3.40153 13.7109C1.96669 16.2686 0.94007 19.0925 0.414392 22.0775C0.14227 23.6009 0 25.1677 0 26.7716V254.934C0 269.698 11.9919 281.706 26.736 281.706H346.275C349.331 281.706 352.274 281.186 355.014 280.232C365.478 276.603 373.011 266.633 373.011 254.934V26.7716C373.011 25.1739 372.869 23.6009 372.597 22.0775ZM371.774 254.934C371.774 267.853 362.188 278.535 349.751 280.232C348.613 280.387 347.457 280.467 346.275 280.467H64.7156C29.6551 280.467 1.23692 252.005 1.23692 216.898V26.7716C1.23692 25.1677 1.38534 23.6009 1.66985 22.0775C2.22647 19.0677 3.30878 16.25 4.82398 13.7109C9.2707 6.24239 17.422 1.23857 26.736 1.23857H346.275C355.589 1.23857 363.741 6.24239 368.187 13.7109C369.703 16.25 370.785 19.0677 371.341 22.0775C371.626 23.6009 371.774 25.1677 371.774 26.7716V254.934Z" fill="#0C4A6E"/>
<path d="M356.187 133.815L354.094 126.131L363.512 122.638L364.558 129.623L356.187 133.815Z" fill="#FFB6B6"/>
<path opacity="0.1" d="M356.187 133.815L354.094 126.131L359.64 123.788L357.917 132.847L356.187 133.815Z" fill="#0C4A6E"/>
<path d="M328.618 199.668C326.819 198.596 326.724 195.433 328.406 192.602C329.142 191.363 330.097 190.394 331.089 189.785L332.076 188.169L344.57 165.741C344.57 165.741 350.039 144.588 352.266 142.031C354.493 139.473 357.712 140.076 357.712 140.076L360.567 142.616L350.376 172.575L337.799 190.31L336.114 192.778C336.052 193.942 335.656 195.244 334.92 196.483C333.238 199.314 330.417 200.74 328.618 199.668Z" fill="#FFB6B6"/>
<path d="M355.672 131.62C355.672 131.62 359.646 131.466 362.153 134.557C364.66 137.648 351.525 172.487 351.525 172.487L340.826 172.108L355.672 131.62Z" fill="#0EA5E9"/>
<path d="M356.71 127.353C362.104 127.353 366.476 122.975 366.476 117.574C366.476 112.173 362.104 107.794 356.71 107.794C351.316 107.794 346.944 112.173 346.944 117.574C346.944 122.975 351.316 127.353 356.71 127.353Z" fill="#FFB6B6"/>
<path d="M333.864 259.55L327.236 275.966L323.4 272.124L322.004 264.789L327.585 257.804L333.864 259.55Z" fill="#FFB6B6"/>
<path d="M395.95 253.613L402.577 261.297L399.438 267.583L392.462 266.536L388.974 256.756L395.95 253.613Z" fill="#FFB6B6"/>
<path d="M351.827 161.93L350.955 176.076L372.58 172.234L371.185 163.502L351.827 161.93Z" fill="#FFB6B6"/>
<path d="M371.883 189.348L380.254 226.021L397.694 254.311L388.625 259.55L364.209 226.021L356.187 200.175L371.883 189.348Z" fill="#082F49"/>
<path d="M350.78 176.25L372.58 169.09C372.58 169.09 380.603 185.157 371.883 195.285C363.163 205.414 334.212 263.043 334.212 263.043L325.492 258.852L338.049 222.179L352.001 188.3L350.78 176.25Z" fill="#0C4A6E"/>
<path d="M318.865 263.392H312.824C312.824 263.392 305.776 260.598 304.124 263.392C302.472 266.186 311.494 274.111 311.494 274.111C311.494 274.111 324.097 281.205 325.841 280.856C327.585 280.506 328.283 276.315 328.283 276.315L330.376 271.425L327.236 272.473C327.236 272.473 323.051 270.028 324.097 265.837L318.865 263.392Z" fill="#082F49"/>
<path d="M401.182 262.344V258.852L405.237 262.344C405.237 262.344 411.995 264.789 406.763 270.028C401.531 275.267 394.904 280.856 394.904 280.856C394.904 280.856 384.44 283.65 383.742 280.506C383.044 277.363 383.742 276.091 383.742 276.091L387.579 274.219L391.067 265.139L396.648 265.837L401.182 262.344Z" fill="#082F49"/>
<path d="M359.675 119.495L356.536 119.145L350.78 113.383C350.78 113.383 345.548 116.177 345.548 114.081C345.548 104.302 351.478 104.651 356.361 103.952C361.244 103.254 360.721 103.079 362.291 105.699C363.009 106.897 365.604 107.62 365.604 107.62C365.604 107.62 370.488 100.984 372.929 109.017C375.371 117.05 372.232 141.848 374.673 143.943C377.115 146.039 364.648 148.131 365.998 139.925C367.348 131.719 369.79 119.145 368.395 116.351C367 113.557 366.651 114.256 366.651 114.256C368.38 113.549 369.51 126 362.99 126.61L362.814 120.542C362.814 120.542 361.768 117.399 359.675 119.495Z" fill="#082F49"/>
<path d="M355.315 131.544L365.779 127.353L379.731 169.265L351.025 168.218L348.44 155.709C348.44 155.709 345.916 149.198 348.009 145.356C350.102 141.514 355.315 131.544 355.315 131.544Z" fill="#38BDF8"/>
<path d="M382.544 201.752C380.458 201.932 378.54 199.417 378.258 196.135C378.135 194.699 378.346 193.354 378.797 192.28L378.659 190.391L375.752 164.875C375.752 164.875 370.342 144.003 370.662 140.625C370.982 137.248 371.488 136.351 371.488 136.351L375.286 136.747L384.448 167.038L384.555 188.79L384.623 191.779C385.25 192.76 385.687 194.049 385.81 195.486C386.092 198.767 384.629 201.573 382.544 201.752Z" fill="#FFB6B6"/>
<path d="M364.907 130.671C364.907 130.671 368.046 128.226 371.883 129.274C375.72 130.322 385.331 166.296 385.331 166.296L376.417 172.234L364.907 130.671Z" fill="#38BDF8"/>
<path d="M296.589 111.558H76.4178C74.3716 111.558 72.707 109.891 72.707 107.842C72.707 105.793 74.3716 104.126 76.4178 104.126H296.589C298.635 104.126 300.3 105.793 300.3 107.842C300.3 109.891 298.635 111.558 296.589 111.558Z" fill="#082F49"/>
<path d="M18.216 52L24.192 38.23H24.336L30.312 52H27.288L26.262 49.408H21.87L20.79 52H18.216ZM22.788 47.212H25.398L24.12 43.99L22.788 47.212Z" fill="#38BDF8"/>
<path d="M32.2432 52V38.752H36.2032C37.5352 38.752 38.6692 38.95 39.6052 39.346C40.5412 39.742 41.2912 40.27 41.8552 40.93C42.4312 41.59 42.8512 42.328 43.1152 43.144C43.3792 43.96 43.5112 44.782 43.5112 45.61C43.5112 46.594 43.3312 47.482 42.9712 48.274C42.6232 49.054 42.1432 49.726 41.5312 50.29C40.9192 50.842 40.2112 51.268 39.4072 51.568C38.6032 51.856 37.7512 52 36.8512 52H32.2432ZM34.8532 49.48H36.4012C37.7212 49.48 38.7832 49.138 39.5872 48.454C40.4032 47.77 40.8112 46.762 40.8112 45.43C40.8112 44.566 40.6672 43.864 40.3792 43.324C40.1032 42.772 39.7552 42.346 39.3352 42.046C38.9272 41.746 38.5072 41.542 38.0752 41.434C37.6432 41.314 37.2772 41.254 36.9772 41.254H34.8532V49.48Z" fill="#082F49"/>
<path d="M245.541 49.2157H217.711C215.665 49.2157 214 47.549 214 45.5C214 43.451 215.665 41.7843 217.711 41.7843H245.541C247.588 41.7843 249.252 43.451 249.252 45.5C249.252 47.549 247.588 49.2157 245.541 49.2157Z" fill="#082F49"/>
<path d="M297.794 49.2157H269.963C267.917 49.2157 266.252 47.549 266.252 45.5C266.252 43.451 267.917 41.7843 269.963 41.7843H297.794C299.84 41.7843 301.504 43.451 301.504 45.5C301.504 47.549 299.84 49.2157 297.794 49.2157Z" fill="#082F49"/>
<path d="M350.046 49.2157H322.215C320.169 49.2157 318.504 47.549 318.504 45.5C318.504 43.451 320.169 41.7843 322.215 41.7843H350.046C352.092 41.7843 353.757 43.451 353.757 45.5C353.757 47.549 352.092 49.2157 350.046 49.2157Z" fill="#082F49"/>
<path d="M247.731 149.953H125.276C123.23 149.953 121.565 148.287 121.565 146.238C121.565 144.189 123.23 142.522 125.276 142.522H247.731C249.777 142.522 251.442 144.189 251.442 146.238C251.442 148.287 249.777 149.953 247.731 149.953Z" fill="#082F49"/>
<path d="M253.067 231.238H119.94C118.703 231.238 117.696 230.23 117.696 228.991C117.696 227.752 118.703 226.745 119.94 226.745H253.067C254.304 226.745 255.311 227.752 255.311 228.991C255.311 230.23 254.304 231.238 253.067 231.238Z" fill="#082F49"/>
<path d="M254.306 13.2501H121.179C119.942 13.2501 118.935 12.2423 118.935 11.0034C118.935 9.76445 119.942 8.75665 121.179 8.75665H254.306C255.543 8.75665 256.55 9.76445 256.55 11.0034C256.55 12.2423 255.543 13.2501 254.306 13.2501Z" fill="#0C4A6E"/>
<g filter="url(#filter0_d_440_603)">
<rect x="127" y="178" width="51" height="13" fill="#38BDF8"/>
<rect x="127.5" y="178.5" width="50" height="12" stroke="#082F49"/>
</g>
<g filter="url(#filter1_d_440_603)">
<rect x="197" y="178" width="51" height="13" fill="#F0F9FF"/>
<rect x="197.5" y="178.5" width="50" height="12" stroke="#082F49"/>
</g>
</g>
<defs>
<filter id="filter0_d_440_603" x="127" y="178" width="53" height="16" filterUnits="userSpaceOnUse" color-interpolation-filters="sRGB">
<feFlood flood-opacity="0" result="BackgroundImageFix"/>
<feColorMatrix in="SourceAlpha" type="matrix" values="0 0 0 0 0 0 0 0 0 0 0 0 0 0 0 0 0 0 127 0" result="hardAlpha"/>
<feOffset dx="2" dy="3"/>
<feComposite in2="hardAlpha" operator="out"/>
<feColorMatrix type="matrix" values="0 0 0 0 0.0313726 0 0 0 0 0.184314 0 0 0 0 0.286275 0 0 0 1 0"/>
<feBlend mode="normal" in2="BackgroundImageFix" result="effect1_dropShadow_440_603"/>
<feBlend mode="normal" in="SourceGraphic" in2="effect1_dropShadow_440_603" result="shape"/>
</filter>
<filter id="filter1_d_440_603" x="197" y="178" width="53" height="16" filterUnits="userSpaceOnUse" color-interpolation-filters="sRGB">
<feFlood flood-opacity="0" result="BackgroundImageFix"/>
<feColorMatrix in="SourceAlpha" type="matrix" values="0 0 0 0 0 0 0 0 0 0 0 0 0 0 0 0 0 0 127 0" result="hardAlpha"/>
<feOffset dx="2" dy="3"/>
<feComposite in2="hardAlpha" operator="out"/>
<feColorMatrix type="matrix" values="0 0 0 0 0.0313726 0 0 0 0 0.184314 0 0 0 0 0.286275 0 0 0 1 0"/>
<feBlend mode="normal" in2="BackgroundImageFix" result="effect1_dropShadow_440_603"/>
<feBlend mode="normal" in="SourceGraphic" in2="effect1_dropShadow_440_603" result="shape"/>
</filter>
<clipPath id="clip0_440_603">
<rect width="445" height="282" fill="white"/>
</clipPath>
</defs>
</svg>
