<svg width="420" height="258" viewBox="0 0 420 258" fill="none" xmlns="http://www.w3.org/2000/svg">
<path d="M418.903 202.973H1.09661C0.805768 202.973 0.526858 202.857 0.321204 202.652C0.115551 202.446 0 202.167 0 201.876C0 201.585 0.115551 201.307 0.321204 201.101C0.526858 200.895 0.805768 200.78 1.09661 200.78H418.903C419.194 200.78 419.473 200.895 419.679 201.101C419.884 201.307 420 201.585 420 201.876C420 202.167 419.884 202.446 419.679 202.652C419.473 202.857 419.194 202.973 418.903 202.973Z" fill="#082F49"/>
<path d="M218.289 59.3175C234.641 59.3175 247.897 46.0614 247.897 29.7092C247.897 13.3569 234.641 0.10083 218.289 0.10083C201.937 0.10083 188.681 13.3569 188.681 29.7092C188.681 46.0614 201.937 59.3175 218.289 59.3175Z" fill="#2F2E41"/>
<path d="M190.157 219.78L189.373 206.359L240.767 196.945L241.925 216.754L190.157 219.78Z" fill="#FFB8B8"/>
<path d="M192.646 196.548L194.159 222.432L177.862 223.384L175.396 181.203C177.536 181.078 179.68 181.376 181.705 182.079C183.731 182.783 185.597 183.878 187.199 185.303C188.801 186.728 190.106 188.454 191.041 190.384C191.976 192.313 192.521 194.408 192.646 196.548Z" fill="#082F46"/>
<path d="M212.509 219.657L203.972 230.043L159.849 202.058L172.448 186.73L212.509 219.657Z" fill="#FFB8B8"/>
<path d="M194.908 235.022L211.372 214.992L223.984 225.358L197.154 258C195.498 256.639 194.126 254.965 193.117 253.073C192.108 251.182 191.481 249.11 191.272 246.976C191.064 244.843 191.278 242.689 191.902 240.638C192.525 238.587 193.547 236.679 194.908 235.022Z" fill="#082F46"/>
<path d="M187.943 171.358L182.109 198.859C181.975 199.493 181.982 200.148 182.131 200.778C182.28 201.408 182.566 201.997 182.97 202.503C183.373 203.009 183.883 203.42 184.464 203.706C185.045 203.991 185.682 204.145 186.329 204.155L243.679 205.08C244.326 205.091 244.967 204.958 245.556 204.692C246.145 204.426 246.668 204.033 247.088 203.541C247.507 203.049 247.813 202.47 247.983 201.847C248.152 201.223 248.182 200.569 248.07 199.932L243.053 171.506C242.874 170.49 242.343 169.57 241.553 168.908C240.763 168.245 239.765 167.882 238.734 167.882H192.234C191.228 167.882 190.254 168.227 189.473 168.86C188.691 169.492 188.151 170.374 187.943 171.358Z" fill="#2F2E41"/>
<path d="M197.454 181.041C197.454 181.041 141.527 145.949 130.561 164.592C125.078 173.913 127.819 182.96 131.931 189.677C135.748 195.792 141.226 200.695 147.725 203.813L193.067 226.002L209.516 208.456L198.55 198.586L197.454 181.041Z" fill="#082F46"/>
<path d="M225.965 175.558C225.965 175.558 298.341 154.722 284.085 194.2C269.83 233.678 216.096 218.325 216.096 218.325L210.613 201.876L229.255 188.717L225.965 175.558Z" fill="#082F46"/>
<path d="M218.66 63.4039C233.535 63.4039 245.594 51.3452 245.594 36.4701C245.594 21.595 233.535 9.53638 218.66 9.53638C203.785 9.53638 191.727 21.595 191.727 36.4701C191.727 51.3452 203.785 63.4039 218.66 63.4039Z" fill="#FFB8B8"/>
<path d="M220.072 179.91C208.88 179.741 197.746 178.274 186.892 175.539L186.571 175.451L171.541 106.315C170.189 100.24 171.109 93.8801 174.126 88.4365C177.143 82.9929 182.049 78.8424 187.917 76.769C206.044 70.2653 225.8 69.8708 244.172 75.6456C250.337 77.6322 255.526 81.87 258.704 87.5135C261.882 93.157 262.815 99.7913 261.318 106.093L244.531 175.393L244.294 175.505C237.318 178.81 228.594 179.91 220.072 179.91Z" fill="#082F49"/>
<path d="M199.883 185.28C200.429 183.764 201.301 182.385 202.437 181.241C203.574 180.098 204.947 179.217 206.46 178.662C207.974 178.106 209.59 177.89 211.197 178.027C212.803 178.164 214.36 178.651 215.757 179.455L245.351 153.768L248.028 173.954L219.515 195.253C218.009 197.511 215.728 199.138 213.102 199.826C210.477 200.515 207.69 200.216 205.27 198.986C202.85 197.757 200.965 195.683 199.972 193.157C198.98 190.631 198.948 187.828 199.883 185.28Z" fill="#FFB8B8"/>
<path d="M228.108 190.883C227.627 190.883 227.148 190.813 226.686 190.675C225.938 190.457 225.252 190.062 224.687 189.525C224.122 188.988 223.693 188.323 223.438 187.586L219.866 177.466C219.531 176.531 219.489 175.516 219.744 174.556C219.999 173.596 220.539 172.736 221.294 172.09L261.615 147.883L245.72 76.9756L246.125 76.8782C246.289 76.8375 262.574 73.1311 269.247 90.9263C273.921 103.389 291.214 130.489 289.994 148.801C289.762 152.464 288.303 155.942 285.851 158.674C283.399 161.405 280.098 163.23 276.482 163.855L231.095 189.858C230.24 190.521 229.19 190.882 228.108 190.883Z" fill="#082F49"/>
<path d="M232.629 182.875C232.083 181.358 231.212 179.979 230.075 178.836C228.939 177.692 227.566 176.812 226.052 176.256C224.539 175.701 222.922 175.484 221.316 175.621C219.71 175.758 218.153 176.246 216.755 177.05L187.162 151.362L184.484 171.549L212.997 192.847C214.503 195.106 216.785 196.733 219.411 197.421C222.036 198.109 224.823 197.81 227.243 196.581C229.663 195.352 231.547 193.278 232.54 190.752C233.533 188.225 233.565 185.423 232.629 182.875Z" fill="#FFB8B8"/>
<path d="M207.374 190.883C206.293 190.882 205.242 190.521 204.387 189.859L155.711 166.048C152.094 165.423 148.793 163.598 146.342 160.867C143.89 158.135 142.43 154.657 142.199 150.994C140.979 132.682 161.562 103.39 166.235 90.9263C172.908 73.1311 189.193 76.8364 189.358 76.8782L189.762 76.9757L170.578 150.077L214.188 172.09C214.943 172.736 215.483 173.596 215.738 174.556C215.993 175.516 215.951 176.531 215.616 177.466L212.044 187.586C211.789 188.323 211.361 188.988 210.796 189.525C210.23 190.062 209.545 190.457 208.796 190.675C208.335 190.813 207.856 190.883 207.374 190.883Z" fill="#082F49"/>
<path d="M191.458 35.3739C189.861 31.3249 192.48 26.4997 196.366 24.5384C200.251 22.577 204.939 22.95 209.095 24.2427C212.588 25.329 215.861 27.0126 219.268 28.3423C222.628 29.8309 226.297 30.4844 229.963 30.247C233.598 29.8365 237.215 27.7985 238.702 24.4569C240.244 20.9932 239.195 16.7663 236.822 13.8102C234.296 10.9524 231.027 8.85133 227.378 7.7407C219.364 4.91757 210.108 4.83504 202.669 8.93874C195.229 13.0424 190.174 21.7802 191.711 30.1362" fill="#2F2E41"/>
<path d="M35.8178 190.163C37.1726 175.572 40.9145 161.303 46.8941 147.925C48.5607 144.202 50.395 140.561 52.397 137.002C52.4974 136.816 52.5216 136.598 52.4645 136.394C52.4074 136.19 52.2734 136.017 52.0908 135.91C51.9082 135.803 51.6913 135.772 51.4858 135.822C51.2803 135.872 51.1024 136 50.9895 136.179C43.7088 149.142 38.6082 163.213 35.8916 177.831C35.136 181.913 34.568 186.023 34.1877 190.163C34.0911 191.207 35.7218 191.2 35.8178 190.163Z" fill="#38BDF8"/>
<path d="M56.3449 139.616C62.0466 139.616 66.6688 134.994 66.6688 129.292C66.6688 123.59 62.0466 118.968 56.3449 118.968C50.6432 118.968 46.021 123.59 46.021 129.292C46.021 134.994 50.6432 139.616 56.3449 139.616Z" fill="#0EA5E9"/>
<path d="M36.8741 190.437C37.7531 180.971 40.1806 171.714 44.0598 163.035C45.141 160.62 46.331 158.258 47.6298 155.949C47.6949 155.828 47.7106 155.687 47.6736 155.555C47.6365 155.423 47.5495 155.31 47.4311 155.241C47.3127 155.172 47.172 155.151 47.0387 155.184C46.9054 155.216 46.79 155.299 46.7167 155.415C41.9934 163.825 38.6844 172.954 36.922 182.436C36.4318 185.085 36.0633 187.752 35.8166 190.437C35.754 191.114 36.8118 191.11 36.8741 190.437Z" fill="#38BDF8"/>
<path d="M50.1912 157.645C53.8902 157.645 56.8888 154.646 56.8888 150.947C56.8888 147.248 53.8902 144.25 50.1912 144.25C46.4923 144.25 43.4937 147.248 43.4937 150.947C43.4937 154.646 46.4923 157.645 50.1912 157.645Z" fill="#0EA5E9"/>
<path d="M35.5394 189.805C30.4104 181.801 26.6307 173.009 24.3513 163.779C23.7183 161.21 23.2038 158.616 22.8077 155.996C22.7849 155.861 22.7103 155.74 22.5998 155.658C22.4894 155.577 22.3516 155.542 22.2156 155.56C22.0796 155.578 21.956 155.649 21.8709 155.756C21.7858 155.864 21.7458 156 21.7595 156.137C23.2076 165.673 26.2133 174.906 30.6563 183.467C31.8985 185.857 33.2483 188.186 34.7055 190.455C35.0727 191.028 35.9043 190.374 35.5394 189.805Z" fill="#38BDF8"/>
<path d="M21.7513 157.175C25.4503 157.175 28.4489 154.176 28.4489 150.477C28.4489 146.778 25.4503 143.78 21.7513 143.78C18.0523 143.78 15.0537 146.778 15.0537 150.477C15.0537 154.176 18.0523 157.175 21.7513 157.175Z" fill="#0EA5E9"/>
<path d="M14.9775 195.73V182.571C14.979 181.263 15.4994 180.009 16.4245 179.083C17.3497 178.158 18.6039 177.638 19.9123 177.636H50.6172C51.9255 177.638 53.1798 178.158 54.105 179.083C55.0301 180.009 55.5505 181.263 55.552 182.571V195.73C55.5505 197.039 55.0301 198.293 54.105 199.218C53.1798 200.143 51.9255 200.664 50.6172 200.665H19.9123C18.6039 200.664 17.3497 200.143 16.4245 199.218C15.4994 198.293 14.979 197.039 14.9775 195.73Z" fill="#BAE6FD"/>
<path d="M344.782 211.088C344.782 218.301 338.935 221.579 331.723 221.579C324.51 221.579 318.664 218.301 318.664 211.088C318.664 203.876 321.566 195.461 331.723 198.363C341.88 194.01 344.782 203.876 344.782 211.088Z" fill="#FF6584"/>
<path d="M331.087 201.741C330.579 201.742 330.089 201.558 329.707 201.223C329.325 200.888 329.079 200.425 329.013 199.922C328.581 196.324 326.198 189.276 325.193 186.413L325.193 186.412C325.091 186.128 325.06 185.823 325.102 185.524C325.144 185.225 325.258 184.94 325.434 184.695C325.603 184.475 325.816 184.294 326.059 184.163C326.303 184.032 326.571 183.953 326.847 183.933C327.123 183.914 327.4 183.952 327.66 184.047C327.92 184.142 328.157 184.291 328.355 184.484C328.532 184.669 328.669 184.889 328.757 185.13C328.846 185.371 328.884 185.627 328.869 185.883C328.672 189.558 331.35 195.495 332.964 198.707C333.117 199.01 333.193 199.346 333.187 199.685C333.181 200.024 333.093 200.356 332.93 200.653C332.767 200.951 332.535 201.204 332.252 201.392C331.97 201.579 331.646 201.695 331.309 201.73C331.235 201.738 331.161 201.742 331.087 201.741Z" fill="#082F46"/>
<path d="M340.75 193.636C345.283 189.925 341.727 182.332 336.053 183.79C335.289 183.972 334.586 184.348 334.009 184.88C330.529 188.168 329.989 196.58 329.989 196.58C329.989 196.58 336.135 197.413 340.75 193.636Z" fill="#082F49"/>
<path d="M265.443 201.876H167.845C165.81 201.874 163.858 201.064 162.419 199.625C160.98 198.186 160.171 196.235 160.168 194.2V140.466C160.171 138.431 160.98 136.48 162.419 135.041C163.858 133.602 165.81 132.792 167.845 132.79H265.443C267.478 132.792 269.429 133.602 270.868 135.041C272.307 136.48 273.116 138.431 273.119 140.466V194.2C273.116 196.235 272.307 198.186 270.868 199.625C269.429 201.064 267.478 201.874 265.443 201.876Z" fill="#38BDF8"/>
<path d="M205 174L210.67 161H210.807L216.477 174H213.607L212.634 171.553H208.467L207.442 174H205ZM209.338 169.48H211.814L210.602 166.438L209.338 169.48Z" fill="#082F49"/>
<path d="M218.309 174V161.493H222.066C223.33 161.493 224.406 161.68 225.294 162.054C226.182 162.427 226.894 162.926 227.429 163.549C227.975 164.172 228.374 164.869 228.624 165.639C228.875 166.41 229 167.186 229 167.967C229 168.896 228.829 169.735 228.488 170.482C228.157 171.219 227.702 171.853 227.121 172.386C226.541 172.907 225.869 173.309 225.106 173.592C224.343 173.864 223.535 174 222.681 174H218.309ZM220.785 171.621H222.254C223.506 171.621 224.514 171.298 225.277 170.652C226.051 170.007 226.438 169.055 226.438 167.797C226.438 166.982 226.302 166.319 226.028 165.809C225.767 165.288 225.436 164.886 225.038 164.603C224.651 164.319 224.252 164.127 223.842 164.025C223.432 163.912 223.085 163.855 222.801 163.855H220.785V171.621Z" fill="#082F49"/>
</svg>
