<svg width="69" height="37" viewBox="0 0 69 37" fill="none" xmlns="http://www.w3.org/2000/svg">
<path d="M0.576 37L16.512 0.279998H16.896L32.832 37H24.768L22.032 30.088H10.32L7.44 37H0.576ZM12.768 24.232H19.728L16.32 15.64L12.768 24.232Z" fill="#38BDF8"/>
<path d="M37.9819 37V1.672H48.5419C52.0939 1.672 55.1179 2.2 57.6139 3.256C60.1099 4.312 62.1099 5.72 63.6139 7.48C65.1499 9.24 66.2699 11.208 66.9739 13.384C67.6779 15.56 68.0299 17.752 68.0299 19.96C68.0299 22.584 67.5499 24.952 66.5899 27.064C65.6619 29.144 64.3819 30.936 62.7499 32.44C61.1179 33.912 59.2299 35.048 57.0859 35.848C54.9419 36.616 52.6699 37 50.2699 37H37.9819ZM44.9419 30.28H49.0699C52.5899 30.28 55.4219 29.368 57.5659 27.544C59.7419 25.72 60.8299 23.032 60.8299 19.48C60.8299 17.176 60.4459 15.304 59.6779 13.864C58.9419 12.392 58.0139 11.256 56.8939 10.456C55.8059 9.656 54.6859 9.112 53.5339 8.824C52.3819 8.504 51.4059 8.344 50.6059 8.344H44.9419V30.28Z" fill="#082F49"/>
</svg>
